<?xml version="1.0" encoding="UTF-8"?>
<svg xmlns="http://www.w3.org/2000/svg" width="600" height="600" viewBox="0 0 600 600">
  <circle cx="300" cy="300" r="170" fill="#F5F5F5" stroke="#DDDDDD" stroke-width="2"/>

  <line x1="331.4" y1="113.0" x2="410.0" y2="145.6" stroke="#000000" stroke-width="2"/>
  <line x1="410.0" y1="145.6" x2="397.0" y2="145.6" stroke="#000000" stroke-width="2"/>
  <line x1="410.0" y1="145.6" x2="400.8" y2="136.4" stroke="#000000" stroke-width="2"/>
  <text x="375" y="118" text-anchor="middle" font-size="14" fill="#000000" font-family="Arial, sans-serif" font-weight="bold">ПЧ</text>

  <line x1="324.0" y1="124.0" x2="476.0" y2="276.0" stroke="#000000" stroke-width="2"/>
  <line x1="476.0" y1="276.0" x2="464.0" y2="271.0" stroke="#000000" stroke-width="2"/>
  <line x1="476.0" y1="276.0" x2="471.0" y2="264.0" stroke="#000000" stroke-width="2"/>
  <text x="389" y="218" text-anchor="middle" font-size="14" fill="#000000" font-family="Arial, sans-serif" font-weight="bold">ПЧ</text>

  <line x1="410.0" y1="454.4" x2="331.4" y2="487.0" stroke="#000000" stroke-width="2"/>
  <line x1="331.4" y1="487.0" x2="340.6" y2="477.8" stroke="#000000" stroke-width="2"/>
  <line x1="331.4" y1="487.0" x2="344.4" y2="487.0" stroke="#000000" stroke-width="2"/>
  <text x="375" y="492" text-anchor="middle" font-size="14" fill="#000000" font-family="Arial, sans-serif" font-weight="bold">ПЧ</text>

  <circle cx="300" cy="100" r="32" fill="#1B9C9C" stroke="#0D6060" stroke-width="2"/>
  <text x="300" y="108" text-anchor="middle" font-size="22" fill="#FFFFFF" font-weight="bold" font-family="Arial, sans-serif">1</text>

  <circle cx="441.4" cy="158.6" r="32" fill="#1B9C9C" stroke="#0D6060" stroke-width="2"/>
  <text x="441.4" y="166.6" text-anchor="middle" font-size="22" fill="#FFFFFF" font-weight="bold" font-family="Arial, sans-serif">2</text>

  <circle cx="500" cy="300" r="32" fill="#1B9C9C" stroke="#0D6060" stroke-width="2"/>
  <text x="500" y="308" text-anchor="middle" font-size="22" fill="#FFFFFF" font-weight="bold" font-family="Arial, sans-serif">3</text>

  <circle cx="441.4" cy="441.4" r="32" fill="#1B9C9C" stroke="#0D6060" stroke-width="2"/>
  <text x="441.4" y="449.4" text-anchor="middle" font-size="22" fill="#FFFFFF" font-weight="bold" font-family="Arial, sans-serif">4</text>

  <circle cx="300" cy="500" r="32" fill="#1B9C9C" stroke="#0D6060" stroke-width="2"/>
  <text x="300" y="508" text-anchor="middle" font-size="22" fill="#FFFFFF" font-weight="bold" font-family="Arial, sans-serif">5</text>

  <circle cx="158.6" cy="441.4" r="32" fill="#DC3545" stroke="#A0202D" stroke-width="2"/>
  <text x="158.6" y="449.4" text-anchor="middle" font-size="22" fill="#FFFFFF" font-weight="bold" font-family="Arial, sans-serif">6</text>

  <circle cx="100" cy="300" r="32" fill="#DC3545" stroke="#A0202D" stroke-width="2"/>
  <text x="100" y="308" text-anchor="middle" font-size="22" fill="#FFFFFF" font-weight="bold" font-family="Arial, sans-serif">7</text>

  <circle cx="158.6" cy="158.6" r="32" fill="#DC3545" stroke="#A0202D" stroke-width="2"/>
  <text x="158.6" y="166.6" text-anchor="middle" font-size="22" fill="#FFFFFF" font-weight="bold" font-family="Arial, sans-serif">8</text>
</svg>
