<?xml version="1.0" encoding="UTF-8"?>
<svg xmlns="http://www.w3.org/2000/svg" viewBox="0 0 600 600" font-family="system-ui, -apple-system, Segoe UI, Roboto, Helvetica, Arial, sans-serif">
  <circle cx="300" cy="300" r="170" fill="#F5F5F5" stroke="#DDDDDD" stroke-width="2"/>

  <line x1="300" y1="100" x2="417.6" y2="138.2" stroke="#999" stroke-dasharray="5 4" stroke-width="1.5"/>
  <text x="362" y="93" text-anchor="middle" font-size="12" fill="#555">не два чёрных</text>

  <line x1="490.2" y1="238.2" x2="490.2" y2="361.8" stroke="#999" stroke-dasharray="5 4" stroke-width="1.5"/>
  <text x="558" y="298" text-anchor="middle" font-size="12" fill="#555">не два<tspan x="558" dy="14">чёрных</tspan></text>

  <circle cx="300" cy="100" r="32" fill="#888" stroke="#555" stroke-width="2"/>
  <text x="300" y="108" text-anchor="middle" font-size="22" fill="white" font-weight="bold">1</text>

  <circle cx="417.6" cy="138.2" r="32" fill="#888" stroke="#555" stroke-width="2"/>
  <text x="417.6" y="146.2" text-anchor="middle" font-size="22" fill="white" font-weight="bold">2</text>

  <circle cx="490.2" cy="238.2" r="32" fill="#888" stroke="#555" stroke-width="2"/>
  <text x="490.2" y="246.2" text-anchor="middle" font-size="22" fill="white" font-weight="bold">3</text>

  <circle cx="490.2" cy="361.8" r="32" fill="#888" stroke="#555" stroke-width="2"/>
  <text x="490.2" y="369.8" text-anchor="middle" font-size="22" fill="white" font-weight="bold">4</text>

  <circle cx="417.6" cy="461.8" r="32" fill="#888" stroke="#555" stroke-width="2"/>
  <text x="417.6" y="469.8" text-anchor="middle" font-size="22" fill="white" font-weight="bold">5</text>

  <circle cx="300" cy="500" r="32" fill="#888" stroke="#555" stroke-width="2"/>
  <text x="300" y="508" text-anchor="middle" font-size="22" fill="white" font-weight="bold">6</text>

  <circle cx="182.4" cy="461.8" r="32" fill="#888" stroke="#555" stroke-width="2"/>
  <text x="182.4" y="469.8" text-anchor="middle" font-size="22" fill="white" font-weight="bold">7</text>

  <circle cx="109.8" cy="361.8" r="32" fill="#800020" stroke="#400010" stroke-width="2"/>
  <text x="109.8" y="369.8" text-anchor="middle" font-size="22" fill="white" font-weight="bold">8</text>

  <circle cx="109.8" cy="238.2" r="32" fill="#DC3545" stroke="#A0202D" stroke-width="2"/>
  <text x="109.8" y="246.2" text-anchor="middle" font-size="22" fill="white" font-weight="bold">9</text>
  <text x="109.8" y="290" text-anchor="middle" font-size="13" fill="#666" font-style="italic">я</text>

  <circle cx="182.4" cy="138.2" r="32" fill="#888" stroke="#555" stroke-width="2"/>
  <text x="182.4" y="146.2" text-anchor="middle" font-size="22" fill="white" font-weight="bold">10</text>

  <g transform="translate(206, 114)">
    <circle r="13" fill="white" stroke="#555" stroke-width="1.5"/>
    <g transform="translate(-8, -4.4) scale(0.8)" fill="#222">
      <path d="M 0 0 L 16 0 L 16 1 L 20 1 L 20 3 L 16 3 L 16 4 L 6 4 L 7 11 L 1 11 L 0 4 Z"/>
    </g>
  </g>
</svg>
